HIERARCHY
ROOT Hips
{
  OFFSET 81.8911 37.3365 -1.82041
  CHANNELS 6 Xposition Yposition Zposition Zrotation Xrotation Yrotation
  JOINT LeftHip
  {
    OFFSET 3.39613 0.414336 -0.244007
    CHANNELS 6 Xposition Yposition Zposition Zrotation Xrotation Yrotation
    JOINT LeftKnee
    {
      OFFSET -0.494118 -18.4065 -1.44888
      CHANNELS 6 Xposition Yposition Zposition Zrotation Xrotation Yrotation
      JOINT LeftAnkle
      {
        OFFSET -1.44361 -17.8765 -0.741163
        CHANNELS 6 Xposition Yposition Zposition Zrotation Xrotation Yrotation
        End Site
        {
          OFFSET -0.628723 -3.0548 0.0854331
        }
      }
    }
  }
  JOINT RightHip
  {
    OFFSET -0.321227 -0.387889 -3.39282
    CHANNELS 6 Xposition Yposition Zposition Zrotation Xrotation Yrotation
    JOINT RightKnee
    {
      OFFSET -0.807573 -18.4521 0.0980198
      CHANNELS 6 Xposition Yposition Zposition Zrotation Xrotation Yrotation
      JOINT RightAnkle
      {
        OFFSET -0.432034 -17.9236 0.871413
        CHANNELS 6 Xposition Yposition Zposition Zrotation Xrotation Yrotation
        End Site
        {
          OFFSET -0.383801 -3.08171 0.300278
        }
      }
    }
  }
  JOINT Chest
  {
    OFFSET -0.0135912 4.54055 -0.517818
    CHANNELS 6 Xposition Yposition Zposition Zrotation Xrotation Yrotation
    JOINT CS_BVH
    {
      OFFSET -0.560759 6.35606 1.56557
      CHANNELS 6 Xposition Yposition Zposition Zrotation Xrotation Yrotation
      JOINT LeftCollar
      {
        OFFSET 1.24757 3.37612 2.9703
        CHANNELS 6 Xposition Yposition Zposition Zrotation Xrotation Yrotation
        JOINT LeftShoulder
        {
          OFFSET 5.55818 -0.646468 -1.56358
          CHANNELS 6 Xposition Yposition Zposition Zrotation Xrotation Yrotation
          JOINT LeftElbow
          {
            OFFSET 3.35138 -11.3429 2.45642
            CHANNELS 6 Xposition Yposition Zposition Zrotation Xrotation Yrotation
            JOINT LeftWrist
            {
              OFFSET 1.07792 -9.71148 -0.978612
              CHANNELS 6 Xposition Yposition Zposition Zrotation Xrotation Yrotation
              End Site
              {
                OFFSET 0.808992 -7.28855 -0.734457
              }
            }
          }
        }
      }
      JOINT RightCollar
      {
        OFFSET -2.02327 4.16621 -0.571302
        CHANNELS 6 Xposition Yposition Zposition Zrotation Xrotation Yrotation
        JOINT RightShoulder
        {
          OFFSET -5.84607 -1.39127 -0.781965
          CHANNELS 6 Xposition Yposition Zposition Zrotation Xrotation Yrotation
          JOINT RightElbow
          {
            OFFSET 0.0718358 -9.58584 5.55634
            CHANNELS 6 Xposition Yposition Zposition Zrotation Xrotation Yrotation
            JOINT RightWrist
            {
              OFFSET -0.792887 -9.45765 2.52121
              CHANNELS 6 Xposition Yposition Zposition Zrotation Xrotation Yrotation
              End Site
              {
                OFFSET -0.576499 -6.87655 1.83314
              }
            }
          }
        }
      }
      JOINT Neck
      {
        OFFSET -0.231217 4.02018 0.432694
        CHANNELS 6 Xposition Yposition Zposition Zrotation Xrotation Yrotation
        JOINT Head
        {
          OFFSET -0.610723 5.12807 0.515727
          CHANNELS 6 Xposition Yposition Zposition Zrotation Xrotation Yrotation
          End Site
          {
            OFFSET 0 4.14001 0
          }
        }
      }
    }
  }
}
MOTION
Frames:	11
Frame Time:	0.0333333
-99.836 39.536 -0.802535 -4.98258 0.409179 84.6717 3.39613 0.414336 -0.244007 0.82358 -28.0153 36.3229 -0.494118 -18.4065 -1.44888 18.1778 28.1467 14.7551 -1.44361 -17.8765 -0.741163 2.14999 -1.88559 -0.243078 -0.321227 -0.387889 -3.39282 -2.39121 -15.5722 67.194 -0.807573 -18.4521 0.0980198 69.9841 17.5234 -75.4169 -0.432034 -17.9236 0.871413 6.19501 -0.379383 -0.425535 -0.0135912 4.54055 -0.517818 -3.33533 -20.0004 1.49287 -0.560759 6.35606 1.56557 0.57224 9.62324 2.1967 1.24757 3.37612 2.9703 -3.42375 -1.32973 -4.19947 5.55818 -0.646468 -1.56358 6.08073 14.6631 2.99126 3.35138 -11.3429 2.45642 -6.30906 -24.4621 -1.86769 1.07792 -9.71148 -0.978612 -1.85903e-010 4.39326e-009 -2.70118e-010 -2.02327 4.16621 -0.571302 0.52965 -0.620578 8.63534 -5.84607 -1.39127 -0.781965 -36.5084 19.4735 34.7337 0.0718358 -9.58584 5.55634 24.286 -37.4287 15.465 -0.792887 -9.45765 2.52121 1.70155e-010 -6.14414e-009 -3.06264e-009 -0.231217 4.02018 0.432694 -11.4854 -1.15939 2.43111 -0.610723 5.12807 0.515727 0.768319 12.152 -1.59053 
-98.2246 39.6613 -0.976136 -5.18989 1.12125 84.0163 3.39613 0.414336 -0.244007 -0.280847 -25.5025 35.4631 -0.494118 -18.4065 -1.44888 17.6165 28.378 16.1654 -1.44361 -17.8765 -0.741163 0.766733 -2.80793 -0.297579 -0.321227 -0.387889 -3.39282 -2.68681 -21.8488 66.5525 -0.807573 -18.4521 0.0980198 75.2064 19.3141 -81.9756 -0.432034 -17.9236 0.871413 6.34265 0.799414 -0.576199 -0.0135912 4.54055 -0.517818 -5.08568 -21.009 0.787679 -0.560759 6.35606 1.56557 1.42057 10.5854 1.42737 1.24757 3.37612 2.9703 -3.01798 -1.32899 -4.6148 5.55818 -0.646468 -1.56358 7.17175 14.304 0.168527 3.35138 -11.3429 2.45642 -8.31657 -25.8725 -3.36826 1.07792 -9.71148 -0.978612 -1.85903e-010 4.39326e-009 -2.70118e-010 -2.02327 4.16621 -0.571302 0.778136 -0.593045 8.59349 -5.84607 -1.39127 -0.781965 -37.712 19.8663 36.0524 0.0718358 -9.58584 5.55634 25.2657 -37.7394 16.1255 -0.792887 -9.45765 2.52121 1.70155e-010 -6.14414e-009 -3.06264e-009 -0.231217 4.02018 0.432694 -10.1946 -0.952942 2.75855 -0.610723 5.12807 0.515727 -1.0285 11.8947 -0.223949 
-96.6472 39.7446 -1.09952 -4.8307 1.30355 83.7694 3.39613 0.414336 -0.244007 -0.19425 -22.666 34.2104 -0.494118 -18.4065 -1.44888 15.6115 29.7251 18.8209 -1.44361 -17.8765 -0.741163 -0.748416 -4.42282 -0.354546 -0.321227 -0.387889 -3.39282 -1.86647 -26.7108 65.6501 -0.807573 -18.4521 0.0980198 77.7569 21.2127 -83.2952 -0.432034 -17.9236 0.871413 6.25253 1.48465 -0.67778 -0.0135912 4.54055 -0.517818 -6.45048 -20.5834 0.11963 -0.560759 6.35606 1.56557 2.25758 10.8995 0.495001 1.24757 3.37612 2.9703 -2.47537 -1.34679 -5.0934 5.55818 -0.646468 -1.56358 7.96913 12.9602 -2.20798 3.35138 -11.3429 2.45642 -9.55564 -26.843 -4.35019 1.07792 -9.71148 -0.978612 -1.85903e-010 4.39326e-009 -2.70118e-010 -2.02327 4.16621 -0.571302 0.893798 -0.548405 8.22864 -5.84607 -1.39127 -0.781965 -38.6843 20.843 36.8516 0.0718358 -9.58584 5.55634 26.1089 -37.619 16.6582 -0.792887 -9.45765 2.52121 1.70155e-010 -6.14414e-009 -3.06264e-009 -0.231217 4.02018 0.432694 -8.27231 -1.61871 2.61077 -0.610723 5.12807 0.515727 -2.2557 11.9647 0.84545 
-95.0707 39.8009 -1.1847 -4.70597 1.00426 84.1526 3.39613 0.414336 -0.244007 0.247387 -19.8522 33.2936 -0.494118 -18.4065 -1.44888 13.81 30.3919 20.7887 -1.44361 -17.8765 -0.741163 -1.64522 -5.46365 -0.39912 -0.321227 -0.387889 -3.39282 -1.12964 -30.6979 65.3661 -0.807573 -18.4521 0.0980198 76.9751 20.9154 -81.056 -0.432034 -17.9236 0.871413 6.205 1.66302 -0.697513 -0.0135912 4.54055 -0.517818 -7.35317 -20.0349 -0.843388 -0.560759 6.35606 1.56557 3.1761 10.4077 -0.711506 1.24757 3.37612 2.9703 -1.84962 -1.35961 -5.49382 5.55818 -0.646468 -1.56358 8.80525 12.0045 -4.30183 3.35138 -11.3429 2.45642 -9.96681 -28.3182 -5.0176 1.07792 -9.71148 -0.978612 -1.85903e-010 4.39326e-009 -2.70118e-010 -2.02327 4.16621 -0.571302 1.54769 -0.484152 8.17145 -5.84607 -1.39127 -0.781965 -39.1956 23.3491 36.1428 0.0718358 -9.58584 5.55634 25.7639 -36.9066 16.3591 -0.792887 -9.45765 2.52121 1.70155e-010 -6.14414e-009 -3.06264e-009 -0.231217 4.02018 0.432694 -6.26489 -1.7912 2.4 -0.610723 5.12807 0.515727 -3.02454 12.0677 1.68881 
-93.5264 39.8446 -1.21829 -4.89697 0.853859 84.8998 3.39613 0.414336 -0.244007 0.391516 -17.5514 32.5808 -0.494118 -18.4065 -1.44888 12.4971 30.6103 21.819 -1.44361 -17.8765 -0.741163 -2.15371 -6.09521 -0.42271 -0.321227 -0.387889 -3.39282 -0.305982 -33.9039 65.4044 -0.807573 -18.4521 0.0980198 73.2337 20.4901 -76.2266 -0.432034 -17.9236 0.871413 6.14929 1.45414 -0.667735 -0.0135912 4.54055 -0.517818 -8.88453 -19.5906 -1.98432 -0.560759 6.35606 1.56557 4.67322 9.75963 -2.1484 1.24757 3.37612 2.9703 -0.975365 -1.40673 -6.29028 5.55818 -0.646468 -1.56358 9.05837 11.4678 -6.00184 3.35138 -11.3429 2.45642 -9.43493 -30.3108 -5.33058 1.07792 -9.71148 -0.978612 -1.85903e-010 4.39326e-009 -2.70118e-010 -2.02327 4.16621 -0.571302 2.07912 -0.356954 7.20383 -5.84607 -1.39127 -0.781965 -39.6386 24.9574 35.6578 0.0718358 -9.58584 5.55634 25.1029 -36.7085 15.9099 -0.792887 -9.45765 2.52121 1.70155e-010 -6.14414e-009 -3.06264e-009 -0.231217 4.02018 0.432694 -4.30014 -1.83568 2.09527 -0.610723 5.12807 0.515727 -3.86818 11.6353 2.395 
-92.0257 39.9085 -1.2095 -5.45949 0.519425 85.624 3.39613 0.414336 -0.244007 0.379263 -15.3353 31.7567 -0.494118 -18.4065 -1.44888 11.8744 29.7904 22.2525 -1.44361 -17.8765 -0.741163 -2.05389 -5.90494 -0.407171 -0.321227 -0.387889 -3.39282 0.32458 -36.4176 66.9061 -0.807573 -18.4521 0.0980198 66.4593 17.6417 -69.8942 -0.432034 -17.9236 0.871413 6.16365 0.960703 -0.590588 -0.0135912 4.54055 -0.517818 -10.094 -19.7646 -3.07025 -0.560759 6.35606 1.56557 6.39089 9.70527 -3.50672 1.24757 3.37612 2.9703 -0.608543 -1.41634 -6.47621 5.55818 -0.646468 -1.56358 9.96592 9.74145 -7.26779 3.35138 -11.3429 2.45642 -9.30121 -30.9208 -5.45107 1.07792 -9.71148 -0.978612 -1.85903e-010 4.39326e-009 -2.70118e-010 -2.02327 4.16621 -0.571302 2.58116 -0.28461 6.79793 -5.84607 -1.39127 -0.781965 -39.1372 27.1389 33.5892 0.0718358 -9.58584 5.55634 23.4174 -35.9478 14.7575 -0.792887 -9.45765 2.52121 1.70155e-010 -6.14414e-009 -3.06264e-009 -0.231217 4.02018 0.432694 -2.49322 -2.80736 1.75012 -0.610723 5.12807 0.515727 -4.66922 12.2414 3.11424 
-90.5798 40.0768 -1.1516 -6.0804 -0.254942 86.1359 3.39613 0.414336 -0.244007 0.83548 -12.775 31.0118 -0.494118 -18.4065 -1.44888 10.8875 28.038 22.8171 -1.44361 -17.8765 -0.741163 -1.53923 -5.37578 -0.349244 -0.321227 -0.387889 -3.39282 1.18593 -37.741 68.9319 -0.807573 -18.4521 0.0980198 55.9901 13.3808 -65.3186 -0.432034 -17.9236 0.871413 6.25185 0.465786 -0.510062 -0.0135912 4.54055 -0.517818 -10.3606 -20.1167 -3.9247 -0.560759 6.35606 1.56557 7.60931 9.97876 -4.57247 1.24757 3.37612 2.9703 -0.174753 -1.45196 -6.93061 5.55818 -0.646468 -1.56358 10.4604 7.90493 -7.72234 3.35138 -11.3429 2.45642 -8.41575 -31.1509 -5.04245 1.07792 -9.71148 -0.978612 -1.85903e-010 4.39326e-009 -2.70118e-010 -2.02327 4.16621 -0.571302 3.80316 -0.154788 6.27622 -5.84607 -1.39127 -0.781965 -39.2468 28.7965 31.1491 0.0718358 -9.58584 5.55634 22.6391 -34.3452 14.1113 -0.792887 -9.45765 2.52121 1.70155e-010 -6.14414e-009 -3.06264e-009 -0.231217 4.02018 0.432694 -0.0555147 -3.8793 1.41885 -0.610723 5.12807 0.515727 -5.56375 12.7306 4.07653 
-89.1813 39.9645 -1.08533 -6.45071 -0.054046 86.794 3.39613 0.414336 -0.244007 0.989277 -11.1784 29.9881 -0.494118 -18.4065 -1.44888 9.9042 28.6685 24.2124 -1.44361 -17.8765 -0.741163 -1.93505 -5.66955 -0.372998 -0.321227 -0.387889 -3.39282 0.572309 -37.3893 69.7387 -0.807573 -18.4521 0.0980198 43.8403 8.64841 -64.5914 -0.432034 -17.9236 0.871413 6.68275 0.0743892 -0.430478 -0.0135912 4.54055 -0.517818 -12.1645 -20.0704 -4.8433 -0.560759 6.35606 1.56557 9.09097 10.0122 -5.67009 1.24757 3.37612 2.9703 0.161351 -1.46031 -7.06594 5.55818 -0.646468 -1.56358 10.6282 5.8594 -7.45189 3.35138 -11.3429 2.45642 -7.3623 -30.4952 -4.26812 1.07792 -9.71148 -0.978612 -1.85903e-010 4.39326e-009 -2.70118e-010 -2.02327 4.16621 -0.571302 4.55538 -0.0690732 5.76379 -5.84607 -1.39127 -0.781965 -38.7778 29.6033 28.2728 0.0718358 -9.58584 5.55634 22.675 -32.0251 13.8977 -0.792887 -9.45765 2.52121 1.70155e-010 -6.14414e-009 -3.06264e-009 -0.231217 4.02018 0.432694 2.1843 -4.44476 1.27023 -0.610723 5.12807 0.515727 -6.1237 12.6105 4.92415 
-87.7818 39.9034 -0.963091 -7.20638 0.164369 87.5786 3.39613 0.414336 -0.244007 0.920904 -9.55294 29.8359 -0.494118 -18.4065 -1.44888 9.63268 28.1063 24.2539 -1.44361 -17.8765 -0.741163 -1.57538 -5.34536 -0.335483 -0.321227 -0.387889 -3.39282 0.132204 -36.9536 69.1138 -0.807573 -18.4521 0.0980198 29.3584 4.65205 -69.1768 -0.432034 -17.9236 0.871413 7.52912 0.12742 -0.42281 -0.0135912 4.54055 -0.517818 -14.2877 -20.4876 -5.82947 -0.560759 6.35606 1.56557 11.0263 9.97117 -6.82425 1.24757 3.37612 2.9703 0.436109 -1.49171 -7.4112 5.55818 -0.646468 -1.56358 10.2769 4.21108 -6.4265 3.35138 -11.3429 2.45642 -5.7948 -29.4662 -3.09112 1.07792 -9.71148 -0.978612 -1.85903e-010 4.39326e-009 -2.70118e-010 -2.02327 4.16621 -0.571302 4.94998 -0.017775 5.33428 -5.84607 -1.39127 -0.781965 -38.2379 30.1503 26.1312 0.0718358 -9.58584 5.55634 22.9587 -30.0548 13.8443 -0.792887 -9.45765 2.52121 1.70155e-010 -6.14414e-009 -3.06264e-009 -0.231217 4.02018 0.432694 3.91194 -4.37018 0.774261 -0.610723 5.12807 0.515727 -6.93578 12.3591 5.33659 
-86.2984 39.6921 -0.799691 -7.91226 0.966795 88.6315 3.39613 0.414336 -0.244007 0.479256 -8.32394 30.2595 -0.494118 -18.4065 -1.44888 10.2121 28.5182 23.2196 -1.44361 -17.8765 -0.741163 -1.25593 -5.16423 -0.313311 -0.321227 -0.387889 -3.39282 1.46108 -36.1433 68.9999 -0.807573 -18.4521 0.0980198 15.4979 4.73669 -74.0598 -0.432034 -17.9236 0.871413 10.3006 0.504531 -0.769505 -0.0135912 4.54055 -0.517818 -16.8856 -21.4352 -6.98351 -0.560759 6.35606 1.56557 12.4257 10.3055 -7.72863 1.24757 3.37612 2.9703 0.937866 -1.52972 -7.81998 5.55818 -0.646468 -1.56358 9.79914 3.22761 -5.71307 3.35138 -11.3429 2.45642 -4.14968 -29.1222 -2.05121 1.07792 -9.71148 -0.978612 -1.85903e-010 4.39326e-009 -2.70118e-010 -2.02327 4.16621 -0.571302 5.49072 0.0233283 5.2164 -5.84607 -1.39127 -0.781965 -38.3009 30.4863 25.6685 0.0718358 -9.58584 5.55634 23.4162 -29.2789 14.0236 -0.792887 -9.45765 2.52121 1.70155e-010 -6.14414e-009 -3.06264e-009 -0.231217 4.02018 0.432694 5.22651 -4.21572 0.338724 -0.610723 5.12807 0.515727 -6.7572 12.3879 5.35028 
-84.6967 39.4825 -0.601317 -8.57876 1.59528 89.6393 3.39613 0.414336 -0.244007 0.409523 -7.18047 30.3108 -0.494118 -18.4065 -1.44888 10.8632 28.7385 23.1173 -1.44361 -17.8765 -0.741163 -1.12765 -4.94519 -0.293315 -0.321227 -0.387889 -3.39282 1.61788 -36.6611 68.8069 -0.807573 -18.4521 0.0980198 10.2899 4.63334 -76.0648 -0.432034 -17.9236 0.871413 11.7078 -0.0774336 -0.635537 -0.0135912 4.54055 -0.517818 -18.4757 -22.2414 -7.85329 -0.560759 6.35606 1.56557 12.9959 10.5718 -8.25826 1.24757 3.37612 2.9703 1.27742 -1.55456 -8.07799 5.55818 -0.646468 -1.56358 9.40592 2.43192 -4.8827 3.35138 -11.3429 2.45642 -3.24121 -28.3577 -1.33611 1.07792 -9.71148 -0.978612 -1.85903e-010 4.39326e-009 -2.70118e-010 -2.02327 4.16621 -0.571302 5.61981 0.0385796 5.07732 -5.84607 -1.39127 -0.781965 -38.4656 30.8594 26.5187 0.0718358 -9.58584 5.55634 23.8801 -29.5308 14.3341 -0.792887 -9.45765 2.52121 1.70155e-010 -6.14414e-009 -3.06264e-009 -0.231217 4.02018 0.432694 5.5165 -3.88486 -0.182709 -0.610723 5.12807 0.515727 -6.20917 12.3621 4.78992 
